<?xml version="1.0" encoding="utf-8"?>
<!-- Generator: Adobe Illustrator 25.4.1, SVG Export Plug-In . SVG Version: 6.00 Build 0)  -->
<svg version="1.1" id="Layer_1" xmlns="http://www.w3.org/2000/svg" xmlns:xlink="http://www.w3.org/1999/xlink" x="0px" y="0px"
	 viewBox="0 0 109.31 76.38" style="enable-background:new 0 0 109.31 76.38;" xml:space="preserve">
<style type="text/css">
	.st0{fill:url(#SVGID_1_);}
	.st1{fill:#FFFFFF;}
	.st2{fill:#EFEFF0;}
	.st3{fill:none;}
	.st4{fill:none;stroke:#FFFFFF;stroke-width:0.2738;stroke-miterlimit:10;}
	.st5{fill:none;stroke:#FFFFFF;stroke-width:0.2738;stroke-linejoin:round;stroke-miterlimit:10;}
	.st6{fill:none;stroke:#FFFFFF;stroke-width:0.2173;stroke-miterlimit:10;}
	.st7{fill:none;stroke:#FFFFFF;stroke-width:0.3016;stroke-linejoin:round;stroke-miterlimit:10;}
	.st8{fill:none;stroke:#FFFFFF;stroke-width:0.1884;stroke-linejoin:round;stroke-miterlimit:10;}
	.st9{fill:none;stroke:#FFFFFF;stroke-width:0.3214;stroke-linejoin:round;stroke-miterlimit:10;}
	.st10{fill:none;stroke:#FFFFFF;stroke-width:0.4762;stroke-miterlimit:10;}
	.st11{fill:#353635;}
	.st12{fill:#414042;}
	.st13{fill:#F6C01A;}
	.st14{fill:none;stroke:#FFFFFF;stroke-width:0.27;stroke-miterlimit:10;}
	.st15{fill:none;stroke:#FFFFFF;stroke-width:0.3;stroke-miterlimit:10;}
	.st16{fill:#383838;}
	.st17{fill:url(#SVGID_00000101075832569411051630000015097925869427375025_);}
	.st18{fill:#969696;}
	.st19{fill:url(#SVGID_00000159451534215844399130000008719756749331909290_);}
	.st20{fill:#CDA349;}
	.st21{fill:#474748;}
	.st22{fill:none;stroke:#CDA349;stroke-width:0.9912;stroke-miterlimit:10;}
</style>
<g>
	<g>
		<path class="st1" d="M0,76.24v-7.45h2.7c0.59,0,1.08,0.18,1.48,0.55c0.41,0.35,0.61,0.81,0.61,1.36c0,0.72-0.35,1.27-0.95,1.5
			c0.95,0.17,1.5,0.9,1.5,1.85c0,0.63-0.21,1.17-0.65,1.58c-0.43,0.42-0.96,0.62-1.61,0.62H0z M1.34,71.79h1.18
			c0.57,0,0.96-0.37,0.96-0.92c0-0.5-0.4-0.88-0.95-0.88H1.34V71.79z M1.34,75.03h1.5c0.67,0,1.17-0.46,1.17-1.07
			c0-0.6-0.49-1.05-1.18-1.05H1.34V75.03z"/>
		<path class="st1" d="M8.97,75.03v-2.05h3.2v-1.21H7.64v4.47h4.82v-1.21H8.97z M12.38,68.78H7.64v1.21h4.75V68.78z"/>
		<path class="st1" d="M14.89,76.24v-7.45h1.18l3.95,5.18v-5.18h1.29v7.45h-1.09l-4.03-5.27v5.27H14.89z"/>
		<path class="st1" d="M23.32,75.07c0.17,0.05,0.37,0.09,0.61,0.09c0.7,0,0.88-0.44,0.88-1.21v-5.17h1.34v5.1
			c0,0.57-0.02,0.92-0.18,1.4c-0.21,0.66-0.76,1.04-1.88,1.08c-0.28,0-0.53-0.03-0.76-0.09V75.07z"/>
		<path class="st1" d="M32.14,68.78H31l-3.11,7.45h1.41l2.27-5.63l2.27,5.63h1.41L32.14,68.78z"/>
		<path class="st1" d="M37.39,76.24v-7.45h1.14l2.67,4.18l2.66-4.18H45v7.45h-1.26v-5.05l-2.53,3.94l-2.56-3.92v5.04H37.39z"/>
		<path class="st1" d="M47.77,76.24v-7.45h1.34v7.45H47.77z"/>
		<path class="st1" d="M51.88,76.24v-7.45h1.18L57,73.96v-5.18h1.29v7.45h-1.09l-4.03-5.27v5.27H51.88z"/>
		<path class="st1" d="M66.75,74.03c0.38,0.76,1.01,1.13,1.87,1.13c0.93,0,1.26-0.49,1.26-0.97c0-0.33-0.12-0.56-0.43-0.76
			c-0.31-0.21-0.53-0.31-1.09-0.51c-0.68-0.26-1.08-0.45-1.51-0.79c-0.43-0.35-0.63-0.83-0.63-1.47c0-0.6,0.22-1.08,0.66-1.45
			c0.45-0.37,0.99-0.56,1.65-0.56c1.02,0,1.79,0.41,2.3,1.21l-0.95,0.65c-0.29-0.44-0.73-0.66-1.33-0.66
			c-0.59,0-1.02,0.33-1.02,0.79c0,0.31,0.13,0.46,0.31,0.64c0.12,0.09,0.42,0.21,0.56,0.29l0.38,0.15l0.44,0.17
			c0.71,0.29,1.21,0.6,1.52,0.93c0.31,0.33,0.47,0.78,0.47,1.34c0,1.32-0.91,2.2-2.61,2.2c-1.38,0-2.4-0.64-2.87-1.7L66.75,74.03z"
			/>
		<path class="st1" d="M74.66,76.24v-6.25h-2.02v-1.21h5.38v1.21H76v6.25H74.66z"/>
		<path class="st1" d="M80.06,68.78h1.34v4.46c0,1.28,0.63,1.9,1.69,1.9c1.04,0,1.68-0.62,1.68-1.9v-4.46h1.34v4.6
			c0,0.95-0.28,1.69-0.84,2.2c-0.57,0.51-1.28,0.77-2.17,0.77c-0.89,0-1.61-0.26-2.18-0.77c-0.57-0.51-0.84-1.25-0.84-2.2V68.78z"/>
		<path class="st1" d="M88.77,76.24v-7.45h2.66c1.23,0,2.19,0.34,2.88,1.04c0.7,0.68,1.04,1.58,1.04,2.71s-0.34,2.02-1.03,2.7
			c-0.68,0.67-1.65,1.02-2.88,1.02H88.77z M90.11,75.03h1.24c1.85,0,2.66-0.97,2.66-2.5c0-1.57-0.8-2.53-2.67-2.53h-1.23V75.03z"/>
		<path class="st1" d="M97.72,76.24v-7.45h1.34v7.45H97.72z"/>
		<path class="st1" d="M102.58,75.27c-0.76-0.74-1.14-1.66-1.14-2.75s0.38-2.01,1.14-2.75c0.76-0.75,1.69-1.12,2.79-1.12
			s2.03,0.37,2.79,1.12c0.77,0.74,1.16,1.66,1.16,2.75s-0.38,2.01-1.14,2.75c-0.76,0.74-1.7,1.11-2.8,1.11
			S103.33,76.01,102.58,75.27z M103.49,74.42c0.5,0.5,1.13,0.76,1.87,0.76s1.36-0.26,1.86-0.76c0.5-0.51,0.76-1.14,0.76-1.89
			c0-0.75-0.26-1.38-0.76-1.89c-0.5-0.51-1.12-0.77-1.86-0.77s-1.37,0.26-1.87,0.77c-0.5,0.51-0.75,1.14-0.75,1.89
			C102.75,73.28,102.99,73.91,103.49,74.42z"/>
	</g>
	<g>
		<path class="st20" d="M69.59,45.76l0.02,0.02l15.41-15.41L73.01,18.35c-0.26-0.26-0.52-0.5-0.8-0.72
			c-0.87-0.71-1.84-1.25-2.86-1.62c-0.38-1-0.91-1.95-1.6-2.82c-0.25-0.31-0.52-0.62-0.81-0.91L54.66,0L24.28,30.37l21.38,21.38
			c4.96,4.96,13.03,4.96,18,0c4.96-4.96,4.96-13.03,0-17.99l-3.02-3.02c-0.12-0.12-0.23-0.24-0.34-0.37
			c-0.6-0.68-1.05-1.46-1.36-2.27c-0.06-0.16-0.11-0.32-0.16-0.48c-0.23-0.78-0.33-1.59-0.29-2.4c0.07-1.78,0.79-3.55,2.15-4.91
			c1.15-1.15,2.59-1.84,4.08-2.07c-0.25-0.86-0.71-1.67-1.39-2.35l-0.15-0.15c-1.65,0.45-3.2,1.31-4.5,2.61
			c-1.58,1.58-2.53,3.56-2.84,5.61c-0.14,0.93-0.16,1.87-0.04,2.79c-0.69-0.36-1.34-0.83-1.92-1.41L43.55,15.02L54.66,3.9
			l10.33,10.33c0.36,0.36,0.68,0.75,0.95,1.16c0.6,0.88,1,1.86,1.19,2.87c0.16,0.8,0.19,1.62,0.1,2.43
			c-0.19,1.7-0.94,3.35-2.24,4.65c-1.08,1.08-2.39,1.77-3.78,2.09c0.24,0.6,0.61,1.15,1.09,1.63l0.71,0.71
			c1.44-0.51,2.78-1.34,3.93-2.49c1.43-1.43,2.36-3.16,2.8-4.99c0.23-0.94,0.33-1.9,0.29-2.85c0.36,0.25,0.7,0.53,1.02,0.85
			l10.06,10.06L69.85,41.64C69.95,43.02,69.87,44.41,69.59,45.76z M51.92,27.3c0.12,0.12,0.25,0.24,0.37,0.36
			c0.48,0.43,0.98,0.82,1.51,1.15c0.94,0.59,1.94,1.01,2.99,1.27c0.47,0.94,1.1,1.83,1.89,2.61l3.02,3.02
			c3.89,3.89,3.88,10.21,0,14.09c-3.89,3.89-10.21,3.89-14.09,0L28.19,30.37l13.4-13.4L51.92,27.3z"/>
	</g>
</g>
</svg>
